<?xml version="1.0" encoding="UTF-8"?>
<svg width="23px" height="23px" viewBox="0 0 23 23" version="1.1" xmlns="http://www.w3.org/2000/svg" xmlns:xlink="http://www.w3.org/1999/xlink">
    <!-- Generator: Sketch 43.1 (39012) - http://www.bohemiancoding.com/sketch -->
    <title>Artboard</title>
    <desc>Created with Sketch.</desc>
    <defs></defs>
    <g id="Page-1" stroke="none" stroke-width="1" fill="none" fill-rule="evenodd">
        <g id="Artboard" fill-rule="nonzero" fill="#FFFFFF">
            <path d="M22.5,14 L14,14 L14,22.5 C14,22.776 13.776,23 13.5,23 L9.5,23 C9.224,23 9,22.776 9,22.5 L9,14 L0.5,14 C0.224,14 0,13.776 0,13.5 L0,9.5 C0,9.224 0.224,9 0.5,9 L9,9 L9,0.5 C9,0.224 9.224,0 9.5,0 L13.5,0 C13.776,0 14,0.224 14,0.5 L14,9 L22.5,9 C22.776,9 23,9.224 23,9.5 L23,13.5 C23,13.776 22.776,14 22.5,14 Z" id="Shape"></path>
        </g>
    </g>
</svg>