<?xml version="1.0" encoding="UTF-8"?>
<svg xmlns="http://www.w3.org/2000/svg" xmlns:xlink="http://www.w3.org/1999/xlink" width="256px" height="256px" viewBox="0 0 256 256" version="1.1">
<g id="surface38231">
<path style=" stroke:none;fill-rule:nonzero;fill:rgb(80.392157%,63.137255%,65.490196%);fill-opacity:1;" d="M 13.320312 212.441406 L 32.359375 228.441406 L 75.679688 174.71875 L 57.359375 159.71875 C 54.035156 156.992188 49.753906 155.71875 45.480469 156.1875 C 41.203125 156.652344 37.296875 158.820312 34.640625 162.199219 L 11.160156 192 C 9.113281 194.597656 8 197.8125 8 201.121094 C 8.003906 205.496094 9.953125 209.644531 13.320312 212.441406 Z M 13.320312 212.441406 "/>
<path style=" stroke:none;fill-rule:nonzero;fill:rgb(44.705882%,79.215686%,68.627451%);fill-opacity:1;" d="M 184 116 L 184 88 C 182.800781 73.839844 168 68 157.359375 68 C 149 68 141.167969 72.09375 136.398438 78.960938 L 101.601562 129.121094 C 99.214844 132.566406 99.511719 137.207031 102.320312 140.320312 C 104.082031 142.269531 106.605469 143.351562 109.234375 143.289062 C 111.859375 143.230469 114.328125 142.027344 116 140 L 144 104 L 144 148 L 134.078125 177.71875 C 132.691406 181.859375 130.472656 185.671875 127.558594 188.921875 L 103.558594 215.121094 C 98.871094 219.910156 98.871094 227.570312 103.558594 232.359375 C 108.121094 236.953125 115.460938 237.234375 120.359375 233 L 146.761719 208.679688 C 150.203125 205.582031 152.933594 201.773438 154.761719 197.519531 L 163.679688 176.558594 L 204 231.480469 C 207.503906 236.183594 214.035156 237.402344 219 234.28125 C 224.082031 231.15625 225.835938 224.605469 223 219.359375 L 185.28125 150.519531 C 184.433594 148.859375 183.996094 147.023438 184 145.160156 L 184 116 L 194.761719 123.238281 L 195.640625 123.761719 L 211.398438 131.761719 C 213.695312 132.902344 216.355469 133.070312 218.777344 132.21875 C 221.195312 131.367188 223.167969 129.570312 224.238281 127.238281 C 226.359375 122.71875 224.609375 117.332031 220.238281 114.921875 L 204.441406 106.480469 C 201.507812 104.867188 198.949219 102.660156 196.921875 100 L 184 84 "/>
<path style=" stroke:none;fill-rule:nonzero;fill:rgb(85.882353%,69.803922%,72.941176%);fill-opacity:1;" d="M 54.71875 162.160156 L 12 213.480469 L 8 196.359375 L 37.601562 158.878906 L 49.160156 154.878906 Z M 54.71875 162.160156 "/>
<path style=" stroke:none;fill-rule:nonzero;fill:rgb(36.470588%,73.72549%,61.568627%);fill-opacity:1;" d="M 186.121094 83.320312 L 188 118.679688 L 214.921875 132.640625 L 225.160156 122.359375 L 220.238281 114.121094 L 202.480469 106.761719 Z M 144 148 L 165.320312 180 L 152.320312 204.679688 L 112 237.320312 L 99.960938 222.679688 L 125.679688 192.640625 L 134.679688 172 Z M 144 148 "/>
<path style=" stroke:none;fill-rule:nonzero;fill:rgb(98.039216%,93.72549%,87.058824%);fill-opacity:1;" d="M 172 20 C 160.953125 20 152 28.953125 152 40 C 152 51.046875 160.953125 60 172 60 C 183.046875 60 192 51.046875 192 40 C 192 28.953125 183.046875 20 172 20 Z M 172 20 "/>
<path style=" stroke:none;fill-rule:nonzero;fill:rgb(92.941176%,47.058824%,60%);fill-opacity:1;" d="M 32 220 C 27.582031 220 24 223.582031 24 228 C 24 232.417969 27.582031 236 32 236 C 36.417969 236 40 232.417969 40 228 C 40 223.582031 36.417969 220 32 220 Z M 32 220 "/>
<path style=" stroke:none;fill-rule:nonzero;fill:rgb(55.294118%,42.352941%,62.352941%);fill-opacity:1;" d="M 112 180 L 112 172 C 112 169.789062 110.210938 168 108 168 C 105.789062 168 104 169.789062 104 172 L 104 180 C 104 182.210938 105.789062 184 108 184 C 110.210938 184 112 182.210938 112 180 Z M 228 168 C 225.789062 168 224 169.789062 224 172 L 224 180 C 224 182.210938 225.789062 184 228 184 C 230.210938 184 232 182.210938 232 180 L 232 172 C 232 169.789062 230.210938 168 228 168 Z M 248 168 C 245.789062 168 244 169.789062 244 172 L 244 180 C 244 182.210938 245.789062 184 248 184 C 250.210938 184 252 182.210938 252 180 L 252 172 C 252 169.789062 250.210938 168 248 168 Z M 172 64 C 185.253906 64 196 53.253906 196 40 C 196 26.746094 185.253906 16 172 16 C 158.746094 16 148 26.746094 148 40 C 148 53.253906 158.746094 64 172 64 Z M 172 24 C 180.835938 24 188 31.164062 188 40 C 188 48.835938 180.835938 56 172 56 C 163.164062 56 156 48.835938 156 40 C 156 31.164062 163.164062 24 172 24 Z M 172 24 "/>
<path style=" stroke:none;fill-rule:nonzero;fill:rgb(55.294118%,42.352941%,62.352941%);fill-opacity:1;" d="M 208 184 C 210.210938 184 212 182.210938 212 180 L 212 172 C 212 169.789062 210.210938 168 208 168 C 205.789062 168 204 169.789062 204 172 L 204 176.480469 L 188.839844 148.679688 C 188.28125 147.589844 187.992188 146.382812 188 145.160156 L 188 123.519531 L 192.519531 126.558594 L 193.878906 127.320312 L 209.640625 135.320312 C 212.867188 136.910156 216.59375 137.15625 220 136 C 223.566406 134.820312 226.46875 132.191406 228 128.761719 C 230.9375 122.28125 228.371094 114.632812 222.121094 111.238281 L 206.121094 102.800781 C 203.757812 101.523438 201.675781 99.78125 200 97.679688 L 187.078125 81.679688 L 186.320312 80.921875 C 181.878906 69.71875 169.320312 64 157.359375 64 C 147.6875 63.980469 138.621094 68.722656 133.121094 76.679688 L 98.320312 126.839844 C 95.28125 131.261719 95.28125 137.097656 98.320312 141.519531 L 75.28125 169.121094 L 60 156.601562 C 55.847656 153.191406 50.496094 151.59375 45.152344 152.175781 C 39.808594 152.753906 34.925781 155.457031 31.601562 159.679688 L 8 189.519531 C 1.734375 197.507812 2.957031 209.027344 10.761719 215.519531 L 20.761719 224 C 18.824219 229.214844 20.726562 235.074219 25.355469 238.160156 C 29.980469 241.246094 36.121094 240.746094 40.191406 236.953125 C 44.257812 233.164062 45.191406 227.074219 42.441406 222.238281 L 78.761719 177.398438 L 84.28125 170.800781 C 84.125 171.183594 84.03125 171.589844 84 172 L 84 180 C 84 182.210938 85.789062 184 88 184 C 90.210938 184 92 182.210938 92 180 L 92 172 C 92 169.789062 90.210938 168 88 168 C 87.257812 168.027344 86.535156 168.265625 85.921875 168.679688 L 104.441406 146.519531 C 106.050781 147.164062 107.785156 147.449219 109.519531 147.359375 C 113.367188 147.199219 116.953125 145.355469 119.320312 142.320312 L 140 115.640625 L 140 147.320312 L 132 171.601562 C 131.890625 169.390625 130.007812 167.691406 127.800781 167.800781 C 125.589844 167.910156 123.890625 169.789062 124 172 L 124 180 C 124.011719 181.660156 125.046875 183.140625 126.601562 183.71875 C 125.996094 184.585938 125.339844 185.414062 124.640625 186.199219 L 100.640625 212.359375 C 94.667969 218.660156 94.671875 228.527344 100.648438 234.824219 C 106.621094 241.117188 116.480469 241.632812 123.078125 236 L 149.480469 211.71875 C 153.34375 208.21875 156.402344 203.917969 158.441406 199.121094 L 164.601562 184.640625 L 200.601562 233.921875 C 203.539062 237.816406 208.160156 240.078125 213.039062 240 C 218.425781 240.007812 223.410156 237.164062 226.148438 232.527344 C 228.886719 227.890625 228.96875 222.152344 226.359375 217.441406 Z M 188 95.398438 L 193.800781 102.679688 C 196.167969 105.632812 199.105469 108.082031 202.441406 109.878906 L 218.441406 118.320312 C 220.996094 119.683594 222.050781 122.804688 220.839844 125.441406 C 220.242188 126.804688 219.09375 127.851562 217.679688 128.320312 C 216.222656 128.855469 214.605469 128.738281 213.238281 128 L 197.238281 120 C 197.085938 119.9375 196.9375 119.855469 196.800781 119.761719 L 188 113.839844 Z M 29.121094 230.800781 C 28.394531 230.046875 27.992188 229.042969 28 228 C 28 225.789062 29.789062 224 32 224 C 34.210938 224 36 225.789062 36 228 C 36 230.210938 34.210938 232 32 232 C 31.203125 232 30.421875 231.765625 29.761719 231.320312 Z M 36.359375 216.878906 C 34.984375 216.285156 33.5 215.988281 32 216 C 29.847656 216 27.730469 216.582031 25.878906 217.679688 L 16 209.359375 C 13.488281 207.359375 12.015625 204.332031 12 201.121094 C 11.996094 198.714844 12.800781 196.375 14.28125 194.480469 L 37.800781 164.640625 C 39.761719 162.132812 42.640625 160.503906 45.800781 160.121094 C 47.292969 159.980469 48.796875 160.117188 50.238281 160.519531 L 20.601562 196 C 19.1875 197.699219 19.417969 200.226562 21.121094 201.640625 C 22.820312 203.054688 25.347656 202.820312 26.761719 201.121094 L 57.238281 164.601562 L 70.039062 175.121094 Z M 151.078125 196 C 149.457031 199.730469 147.039062 203.058594 144 205.761719 L 117.761719 230 C 114.378906 232.519531 109.648438 232.109375 106.75 229.046875 C 103.851562 225.984375 103.699219 221.238281 106.398438 218 L 130.398438 191.761719 C 133.683594 188.09375 136.175781 183.792969 137.71875 179.121094 L 145.078125 157 C 145.359375 157.480469 145.601562 158 145.921875 158.480469 L 159.078125 176.921875 Z M 216.878906 230.921875 C 213.703125 232.949219 209.496094 232.179688 207.238281 229.160156 L 174 184 C 174.007812 183.851562 174.007812 183.707031 174 183.558594 L 158.398438 161.839844 L 152.921875 153.839844 C 150.199219 149.839844 148.199219 136.960938 148.199219 130.320312 L 148.199219 104 C 148.292969 102.207031 147.179688 100.570312 145.480469 100 C 143.871094 99.449219 142.089844 99.980469 141.039062 101.320312 L 113.039062 137.320312 C 112.445312 138.066406 111.65625 138.632812 110.761719 138.960938 C 110.273438 139.144531 109.761719 139.253906 109.238281 139.28125 C 107.722656 139.347656 106.253906 138.730469 105.238281 137.601562 C 103.691406 135.859375 103.527344 133.285156 104.839844 131.359375 L 139.640625 81.199219 C 143.675781 75.40625 150.300781 71.96875 157.359375 72 C 165.921875 72 179 76.359375 180 88 L 180 145.160156 C 180.011719 147.691406 180.617188 150.183594 181.761719 152.441406 L 219.359375 221.28125 C 221.199219 224.632812 220.113281 228.835938 216.878906 230.878906 Z M 216.878906 230.921875 "/>
</g>
</svg>
