<?xml version="1.0" encoding="UTF-8"?>
<svg xmlns="http://www.w3.org/2000/svg" xmlns:xlink="http://www.w3.org/1999/xlink" width="256px" height="256px" viewBox="0 0 256 256" version="1.1">
<g id="surface34687">
<path style=" stroke:none;fill-rule:nonzero;fill:rgb(92.941176%,47.058824%,60%);fill-opacity:1;" d="M 12 64 C 12 39.699219 31.699219 20 56 20 C 80.300781 20 100 39.699219 100 64 C 100 95.640625 60.878906 122.398438 56 161.199219 C 51.121094 122.199219 12 95.441406 12 64 Z M 12 64 "/>
<path style=" stroke:none;fill-rule:nonzero;fill:rgb(52.156863%,79.607843%,97.254902%);fill-opacity:1;" d="M 156 144 C 156 119.699219 175.699219 100 200 100 C 224.300781 100 244 119.699219 244 144 C 244 175.640625 204.878906 202.398438 200 241.199219 C 195.121094 202.199219 156 175.441406 156 144 Z M 156 144 "/>
<path style=" stroke:none;fill-rule:nonzero;fill:rgb(97.647059%,86.666667%,56.078431%);fill-opacity:1;" d="M 200 124 C 188.953125 124 180 132.953125 180 144 C 180 155.046875 188.953125 164 200 164 C 211.046875 164 220 155.046875 220 144 C 220 132.953125 211.046875 124 200 124 Z M 56 44 C 44.953125 44 36 52.953125 36 64 C 36 75.046875 44.953125 84 56 84 C 67.046875 84 76 75.046875 76 64 C 76 52.953125 67.046875 44 56 44 Z M 56 44 "/>
<path style=" stroke:none;fill-rule:nonzero;fill:rgb(55.294118%,42.352941%,62.352941%);fill-opacity:1;" d="M 56 16 C 29.492188 16 8 37.492188 8 64 C 8 81.039062 18.160156 96 28.878906 112 C 39.121094 127.28125 49.71875 143.078125 52.039062 161.519531 C 52.039062 163.730469 53.832031 165.519531 56.039062 165.519531 C 58.25 165.519531 60.039062 163.730469 60.039062 161.519531 C 62.359375 143.078125 72.960938 127.28125 83.199219 112.039062 C 93.839844 96 104 80.878906 104 64 C 104 37.492188 82.507812 16 56 16 Z M 76.480469 107.558594 C 68.183594 118.90625 61.304688 131.222656 56 144.238281 C 50.699219 131.207031 43.824219 118.875 35.519531 107.519531 C 25.480469 92.558594 16 78.441406 16 64 C 16 41.910156 33.910156 24 56 24 C 78.089844 24 96 41.910156 96 64 C 96 78.441406 86.519531 92.558594 76.480469 107.558594 Z M 200 96 C 173.492188 96 152 117.492188 152 144 C 152 161.039062 162.160156 176 172.878906 192 C 183.121094 207.28125 193.71875 223.078125 196.039062 241.519531 C 196.039062 243.730469 197.832031 245.519531 200.039062 245.519531 C 202.25 245.519531 204.039062 243.730469 204.039062 241.519531 C 206.359375 223.078125 216.960938 207.28125 227.199219 192.039062 C 237.839844 176 248 160.878906 248 144 C 248 117.492188 226.507812 96 200 96 Z M 220.480469 187.558594 C 212.183594 198.90625 205.304688 211.222656 200 224.238281 C 194.699219 211.207031 187.824219 198.875 179.519531 187.519531 C 169.480469 172.558594 160 158.441406 160 144 C 160 121.910156 177.910156 104 200 104 C 222.089844 104 240 121.910156 240 144 C 240 158.441406 230.519531 172.558594 220.480469 187.558594 Z M 120 136 C 117.789062 136 116 137.789062 116 140 L 116 148 C 116 150.210938 117.789062 152 120 152 C 122.210938 152 124 150.210938 124 148 L 124 140 C 124 137.789062 122.210938 136 120 136 Z M 140 136 C 137.789062 136 136 137.789062 136 140 L 136 148 C 136 150.210938 137.789062 152 140 152 C 142.210938 152 144 150.210938 144 148 L 144 140 C 144 137.789062 142.210938 136 140 136 Z M 80 136 C 77.789062 136 76 137.789062 76 140 L 76 148 C 76 150.210938 77.789062 152 80 152 C 82.210938 152 84 150.210938 84 148 L 84 140 C 84 137.789062 82.210938 136 80 136 Z M 100 136 C 97.789062 136 96 137.789062 96 140 L 96 148 C 96 150.210938 97.789062 152 100 152 C 102.210938 152 104 150.210938 104 148 L 104 140 C 104 137.789062 102.210938 136 100 136 Z M 100 136 "/>
<path style=" stroke:none;fill-rule:nonzero;fill:rgb(55.294118%,42.352941%,62.352941%);fill-opacity:1;" d="M 200 136 C 195.582031 136 192 139.582031 192 144 C 192 148.417969 195.582031 152 200 152 C 204.417969 152 208 148.417969 208 144 C 208 139.582031 204.417969 136 200 136 Z M 200 136 "/>
<path style=" stroke:none;fill-rule:nonzero;fill:rgb(55.294118%,42.352941%,62.352941%);fill-opacity:1;" d="M 220 140 C 217.789062 140 216 141.789062 216 144 C 215.992188 152.207031 209.777344 159.074219 201.609375 159.902344 C 193.445312 160.726562 185.980469 155.242188 184.328125 147.207031 C 182.675781 139.167969 187.371094 131.183594 195.199219 128.71875 C 197.308594 128.058594 198.484375 125.808594 197.820312 123.699219 C 197.15625 121.589844 194.910156 120.417969 192.800781 121.078125 C 181.058594 124.773438 174.011719 136.75 176.492188 148.808594 C 178.972656 160.863281 190.167969 169.09375 202.417969 167.851562 C 214.664062 166.613281 223.988281 156.308594 224 144 C 224 141.789062 222.210938 140 220 140 Z M 220 140 "/>
<path style=" stroke:none;fill-rule:nonzero;fill:rgb(55.294118%,42.352941%,62.352941%);fill-opacity:1;" d="M 205.921875 129.121094 C 208.125 130.003906 210.109375 131.371094 211.71875 133.121094 C 213.253906 134.558594 215.640625 134.558594 217.179688 133.125 C 218.71875 131.691406 218.882812 129.3125 217.558594 127.679688 C 215.140625 125.089844 212.175781 123.066406 208.878906 121.761719 C 206.824219 120.941406 204.496094 121.945312 203.679688 124 C 202.863281 126.054688 203.867188 128.382812 205.921875 129.199219 Z M 56 56 C 51.582031 56 48 59.582031 48 64 C 48 68.417969 51.582031 72 56 72 C 60.417969 72 64 68.417969 64 64 C 64 59.582031 60.417969 56 56 56 Z M 56 56 "/>
<path style=" stroke:none;fill-rule:nonzero;fill:rgb(55.294118%,42.352941%,62.352941%);fill-opacity:1;" d="M 76 60 C 73.789062 60 72 61.789062 72 64 C 71.992188 72.207031 65.777344 79.074219 57.609375 79.902344 C 49.445312 80.726562 41.980469 75.242188 40.328125 67.207031 C 38.675781 59.167969 43.371094 51.183594 51.199219 48.71875 C 53.308594 48.058594 54.484375 45.808594 53.820312 43.699219 C 53.15625 41.589844 50.910156 40.417969 48.800781 41.078125 C 37.058594 44.773438 30.011719 56.75 32.492188 68.808594 C 34.972656 80.863281 46.167969 89.09375 58.417969 87.851562 C 70.664062 86.613281 79.988281 76.308594 80 64 C 80 61.789062 78.210938 60 76 60 Z M 76 60 "/>
<path style=" stroke:none;fill-rule:nonzero;fill:rgb(55.294118%,42.352941%,62.352941%);fill-opacity:1;" d="M 61.921875 49.121094 C 64.125 50.003906 66.109375 51.371094 67.71875 53.121094 C 69.253906 54.558594 71.640625 54.558594 73.179688 53.125 C 74.71875 51.691406 74.882812 49.3125 73.558594 47.679688 C 71.140625 45.089844 68.175781 43.066406 64.878906 41.761719 C 62.824219 40.941406 60.496094 41.945312 59.679688 44 C 58.863281 46.054688 59.867188 48.382812 61.921875 49.199219 Z M 61.921875 49.121094 "/>
</g>
</svg>
