<?xml version="1.0" encoding="UTF-8"?>
<svg xmlns="http://www.w3.org/2000/svg" xmlns:xlink="http://www.w3.org/1999/xlink" width="256px" height="256px" viewBox="0 0 256 256" version="1.1">
<g id="surface36751">
<path style=" stroke:none;fill-rule:nonzero;fill:rgb(52.156863%,79.607843%,97.254902%);fill-opacity:1;" d="M 244 68 L 244 204 C 244 208.417969 240.417969 212 236 212 L 20 212 C 15.582031 212 12 208.417969 12 204 L 12 68 C 12 63.582031 15.582031 60 20 60 L 236 60 C 240.417969 60 244 63.582031 244 68 Z M 244 68 "/>
<path style=" stroke:none;fill-rule:nonzero;fill:rgb(99.607843%,85.490196%,64.313725%);fill-opacity:1;" d="M 200 152 C 195.972656 152.007812 192.214844 154.035156 190 157.398438 C 187.078125 152.984375 181.605469 151.003906 176.535156 152.527344 C 171.464844 154.054688 167.992188 158.722656 167.992188 164.019531 C 167.992188 169.316406 171.464844 173.984375 176.535156 175.511719 C 181.605469 177.035156 187.078125 175.058594 190 170.640625 C 193.167969 175.410156 199.269531 177.277344 204.566406 175.09375 C 209.863281 172.914062 212.878906 167.292969 211.769531 161.671875 C 210.65625 156.054688 205.726562 152.003906 200 152 Z M 200 152 "/>
<path style=" stroke:none;fill-rule:nonzero;fill:rgb(58.823529%,84.313725%,97.647059%);fill-opacity:1;" d="M 132 211.601562 L 66 211.601562 L 186 60 L 240 60 L 244 70.121094 Z M 162 60 L 41.441406 212 L 24.640625 212 L 24.640625 210.441406 L 144 60 Z M 126 60 L 12 203.960938 L 12 196.398438 L 120 60 Z M 126 60 "/>
<path style=" stroke:none;fill-rule:nonzero;fill:rgb(92.156863%,58.823529%,59.215686%);fill-opacity:1;" d="M 180 152 C 173.371094 152 168 157.371094 168 164 C 168 170.628906 173.371094 176 180 176 C 186.628906 176 192 170.628906 192 164 C 192 157.371094 186.628906 152 180 152 Z M 180 152 "/>
<path style=" stroke:none;fill-rule:nonzero;fill:rgb(54.509804%,55.686275%,59.607843%);fill-opacity:1;" d="M 12 84 L 244 84 L 244 124 L 12 124 Z M 12 84 "/>
<path style=" stroke:none;fill-rule:nonzero;fill:rgb(55.294118%,42.352941%,62.352941%);fill-opacity:1;" d="M 236 56 L 20 56 C 13.371094 56 8 61.371094 8 68 L 8 204 C 8 210.628906 13.371094 216 20 216 L 236 216 C 242.628906 216 248 210.628906 248 204 L 248 68 C 248 61.371094 242.628906 56 236 56 Z M 20 64 L 236 64 C 238.210938 64 240 65.789062 240 68 L 240 120 L 16 120 L 16 88 L 196 88 C 198.210938 88 200 86.210938 200 84 C 200 81.789062 198.210938 80 196 80 L 16 80 L 16 68 C 16 65.789062 17.789062 64 20 64 Z M 240 204 C 240 206.210938 238.210938 208 236 208 L 20 208 C 17.789062 208 16 206.210938 16 204 L 16 128 L 240 128 Z M 240 204 "/>
<path style=" stroke:none;fill-rule:nonzero;fill:rgb(66.27451%,65.490196%,68.235294%);fill-opacity:1;" d="M 28 96 C 25.789062 96 24 97.789062 24 100 L 24 108 C 24 110.210938 25.789062 112 28 112 C 30.210938 112 32 110.210938 32 108 L 32 100 C 32 97.789062 30.210938 96 28 96 Z M 48 96 C 45.789062 96 44 97.789062 44 100 L 44 108 C 44 110.210938 45.789062 112 48 112 C 50.210938 112 52 110.210938 52 108 L 52 100 C 52 97.789062 50.210938 96 48 96 Z M 68 96 C 65.789062 96 64 97.789062 64 100 L 64 108 C 64 110.210938 65.789062 112 68 112 C 70.210938 112 72 110.210938 72 108 L 72 100 C 72 97.789062 70.210938 96 68 96 Z M 88 96 C 85.789062 96 84 97.789062 84 100 L 84 108 C 84 110.210938 85.789062 112 88 112 C 90.210938 112 92 110.210938 92 108 L 92 100 C 92 97.789062 90.210938 96 88 96 Z M 108 96 C 105.789062 96 104 97.789062 104 100 L 104 108 C 104 110.210938 105.789062 112 108 112 C 110.210938 112 112 110.210938 112 108 L 112 100 C 112 97.789062 110.210938 96 108 96 Z M 128 96 C 125.789062 96 124 97.789062 124 100 L 124 108 C 124 110.210938 125.789062 112 128 112 C 130.210938 112 132 110.210938 132 108 L 132 100 C 132 97.789062 130.210938 96 128 96 Z M 148 96 C 145.789062 96 144 97.789062 144 100 L 144 108 C 144 110.210938 145.789062 112 148 112 C 150.210938 112 152 110.210938 152 108 L 152 100 C 152 97.789062 150.210938 96 148 96 Z M 168 96 C 165.789062 96 164 97.789062 164 100 L 164 108 C 164 110.210938 165.789062 112 168 112 C 170.210938 112 172 110.210938 172 108 L 172 100 C 172 97.789062 170.210938 96 168 96 Z M 188 96 C 185.789062 96 184 97.789062 184 100 L 184 108 C 184 110.210938 185.789062 112 188 112 C 190.210938 112 192 110.210938 192 108 L 192 100 C 192 97.789062 190.210938 96 188 96 Z M 208 112 C 210.210938 112 212 110.210938 212 108 L 212 100 C 212 97.789062 210.210938 96 208 96 C 205.789062 96 204 97.789062 204 100 L 204 108 C 204 110.210938 205.789062 112 208 112 Z M 228 96 C 225.789062 96 224 97.789062 224 100 L 224 108 C 224 110.210938 225.789062 112 228 112 C 230.210938 112 232 110.210938 232 108 L 232 100 C 232 97.789062 230.210938 96 228 96 Z M 228 96 "/>
<path style=" stroke:none;fill-rule:nonzero;fill:rgb(55.294118%,42.352941%,62.352941%);fill-opacity:1;" d="M 124 160 L 140 160 C 142.210938 160 144 158.210938 144 156 C 144 153.789062 142.210938 152 140 152 L 124 152 C 121.789062 152 120 153.789062 120 156 C 120 158.210938 121.789062 160 124 160 Z M 44 160 L 100 160 C 102.210938 160 104 158.210938 104 156 C 104 153.789062 102.210938 152 100 152 L 44 152 C 41.789062 152 40 153.789062 40 156 C 40 158.210938 41.789062 160 44 160 Z M 44 176 L 88 176 C 90.210938 176 92 174.210938 92 172 C 92 169.789062 90.210938 168 88 168 L 44 168 C 41.789062 168 40 169.789062 40 172 C 40 174.210938 41.789062 176 44 176 Z M 180 180 C 183.636719 179.996094 187.164062 178.753906 190 176.480469 C 196.539062 181.726562 206.023438 181.035156 211.730469 174.894531 C 217.441406 168.753906 217.441406 159.246094 211.730469 153.105469 C 206.023438 146.964844 196.539062 146.273438 190 151.519531 C 184.519531 147.121094 176.808594 146.816406 170.996094 150.765625 C 165.183594 154.714844 162.628906 161.992188 164.695312 168.710938 C 166.765625 175.425781 172.972656 180.003906 180 180 Z M 180 156 C 182.691406 156 185.199219 157.351562 186.679688 159.601562 C 187.421875 160.722656 188.675781 161.398438 190.019531 161.398438 C 191.363281 161.398438 192.621094 160.722656 193.359375 159.601562 C 195.304688 156.648438 198.953125 155.324219 202.339844 156.335938 C 205.722656 157.351562 208.042969 160.464844 208.042969 164 C 208.042969 167.535156 205.722656 170.648438 202.339844 171.664062 C 198.953125 172.675781 195.304688 171.351562 193.359375 168.398438 C 192.621094 167.277344 191.363281 166.601562 190.019531 166.601562 C 188.675781 166.601562 187.421875 167.277344 186.679688 168.398438 C 184.578125 171.59375 180.507812 172.851562 176.96875 171.40625 C 173.429688 169.957031 171.410156 166.207031 172.148438 162.457031 C 172.886719 158.703125 176.175781 156 180 156 Z M 212 88 L 228 88 C 230.210938 88 232 86.210938 232 84 C 232 81.789062 230.210938 80 228 80 L 212 80 C 209.789062 80 208 81.789062 208 84 C 208 86.210938 209.789062 88 212 88 Z M 212 88 "/>
</g>
</svg>
