<?xml version="1.0" encoding="UTF-8"?>
<svg xmlns="http://www.w3.org/2000/svg" xmlns:xlink="http://www.w3.org/1999/xlink" width="50px" height="50px" viewBox="0 0 50 50" version="1.1">
<g id="surface37516">
<path style=" stroke:none;fill-rule:nonzero;fill:rgb(98.039216%,93.72549%,87.058824%);fill-opacity:1;" d="M 44.53125 30.46875 L 44.53125 32.03125 L 16.40625 32.03125 L 16.40625 25.78125 C 16.40625 24.921875 17.109375 24.21875 17.96875 24.21875 L 38.28125 24.21875 C 40.59375 24.21875 42.617188 25.476562 43.6875 27.34375 C 44.226562 28.257812 44.53125 29.328125 44.53125 30.46875 Z M 44.53125 30.46875 "/>
<path style=" stroke:none;fill-rule:nonzero;fill:rgb(80.392157%,63.137255%,65.490196%);fill-opacity:1;" d="M 49.21875 25.78125 L 49.21875 46.09375 C 49.21875 46.953125 48.515625 47.65625 47.65625 47.65625 L 46.09375 47.65625 C 45.234375 47.65625 44.53125 46.953125 44.53125 46.09375 L 44.53125 42.96875 C 44.53125 42.109375 43.828125 41.40625 42.96875 41.40625 L 7.03125 41.40625 C 6.171875 41.40625 5.46875 42.109375 5.46875 42.96875 L 5.46875 46.09375 C 5.46875 46.953125 4.765625 47.65625 3.90625 47.65625 L 2.34375 47.65625 C 1.484375 47.65625 0.78125 46.953125 0.78125 46.09375 L 0.78125 16.40625 C 0.78125 15.546875 1.484375 14.84375 2.34375 14.84375 L 3.90625 14.84375 C 4.765625 14.84375 5.46875 15.546875 5.46875 16.40625 L 5.46875 31.25 C 5.46875 31.679688 5.820312 32.03125 6.25 32.03125 L 43.75 32.03125 C 44.179688 32.03125 44.53125 31.679688 44.53125 31.25 L 44.53125 25.78125 C 44.53125 24.921875 45.234375 24.21875 46.09375 24.21875 L 47.65625 24.21875 C 48.515625 24.21875 49.21875 24.921875 49.21875 25.78125 Z M 49.21875 25.78125 "/>
<path style=" stroke:none;fill-rule:nonzero;fill:rgb(98.039216%,93.72549%,87.058824%);fill-opacity:1;" d="M 16.40625 27.34375 L 16.40625 28.90625 L 13.28125 28.90625 C 8.96875 28.90625 5.46875 25.40625 5.46875 21.09375 L 5.46875 19.53125 L 8.59375 19.53125 C 12.90625 19.53125 16.40625 23.03125 16.40625 27.34375 Z M 16.40625 27.34375 "/>
<path style=" stroke:none;fill-rule:nonzero;fill:rgb(100%,96.862745%,94.117647%);fill-opacity:1;" d="M 43.6875 27.34375 L 16.40625 27.34375 L 16.40625 25.78125 C 16.40625 24.921875 17.109375 24.21875 17.96875 24.21875 L 38.28125 24.21875 C 40.59375 24.21875 42.617188 25.476562 43.6875 27.34375 Z M 43.6875 27.34375 "/>
<path style=" stroke:none;fill-rule:nonzero;fill:rgb(98.039216%,93.72549%,87.058824%);fill-opacity:1;" d="M 5.46875 25 L 16.40625 25 L 16.40625 32.03125 L 5.46875 32.03125 Z M 5.46875 25 "/>
<path style=" stroke:none;fill-rule:nonzero;fill:rgb(100%,96.862745%,94.117647%);fill-opacity:1;" d="M 16.40625 27.34375 L 16.40625 28.90625 L 16.289062 28.90625 L 5.46875 19.53125 L 8.59375 19.53125 C 12.90625 19.53125 16.40625 23.03125 16.40625 27.34375 Z M 16.40625 27.34375 "/>
<path style=" stroke:none;fill-rule:nonzero;fill:rgb(76.862745%,57.647059%,61.176471%);fill-opacity:1;" d="M 49.21875 35.9375 L 49.21875 46.09375 C 49.21875 46.953125 48.515625 47.65625 47.65625 47.65625 L 46.09375 47.65625 C 45.234375 47.65625 44.53125 46.953125 44.53125 46.09375 L 44.53125 42.96875 C 44.53125 42.109375 43.828125 41.40625 42.96875 41.40625 L 7.03125 41.40625 C 6.171875 41.40625 5.46875 42.109375 5.46875 42.96875 L 5.46875 46.09375 C 5.46875 46.953125 4.765625 47.65625 3.90625 47.65625 L 2.34375 47.65625 C 1.484375 47.65625 0.78125 46.953125 0.78125 46.09375 L 0.78125 35.9375 Z M 49.21875 35.9375 "/>
<path style=" stroke:none;fill-rule:nonzero;fill:rgb(44.705882%,79.215686%,68.627451%);fill-opacity:1;" d="M 27.34375 2.34375 C 22.167969 2.34375 17.96875 6.542969 17.96875 11.71875 C 17.96875 16.894531 22.167969 21.09375 27.34375 21.09375 C 32.519531 21.09375 36.71875 16.894531 36.71875 11.71875 C 36.71875 6.542969 32.519531 2.34375 27.34375 2.34375 Z M 27.34375 2.34375 "/>
<path style=" stroke:none;fill-rule:nonzero;fill:rgb(55.294118%,42.352941%,62.352941%);fill-opacity:1;" d="M 5.46875 34.375 C 5.039062 34.375 4.6875 34.726562 4.6875 35.15625 L 4.6875 36.71875 C 4.6875 37.148438 5.039062 37.5 5.46875 37.5 C 5.898438 37.5 6.25 37.148438 6.25 36.71875 L 6.25 35.15625 C 6.25 34.726562 5.898438 34.375 5.46875 34.375 Z M 9.375 34.375 C 8.945312 34.375 8.59375 34.726562 8.59375 35.15625 L 8.59375 36.71875 C 8.59375 37.148438 8.945312 37.5 9.375 37.5 C 9.804688 37.5 10.15625 37.148438 10.15625 36.71875 L 10.15625 35.15625 C 10.15625 34.726562 9.804688 34.375 9.375 34.375 Z M 13.28125 34.375 C 12.851562 34.375 12.5 34.726562 12.5 35.15625 L 12.5 36.71875 C 12.5 37.148438 12.851562 37.5 13.28125 37.5 C 13.710938 37.5 14.0625 37.148438 14.0625 36.71875 L 14.0625 35.15625 C 14.0625 34.726562 13.710938 34.375 13.28125 34.375 Z M 17.1875 34.375 C 16.757812 34.375 16.40625 34.726562 16.40625 35.15625 L 16.40625 36.71875 C 16.40625 37.148438 16.757812 37.5 17.1875 37.5 C 17.617188 37.5 17.96875 37.148438 17.96875 36.71875 L 17.96875 35.15625 C 17.96875 34.726562 17.617188 34.375 17.1875 34.375 Z M 21.09375 34.375 C 20.664062 34.375 20.3125 34.726562 20.3125 35.15625 L 20.3125 36.71875 C 20.3125 37.148438 20.664062 37.5 21.09375 37.5 C 21.523438 37.5 21.875 37.148438 21.875 36.71875 L 21.875 35.15625 C 21.875 34.726562 21.523438 34.375 21.09375 34.375 Z M 25 34.375 C 24.570312 34.375 24.21875 34.726562 24.21875 35.15625 L 24.21875 36.71875 C 24.21875 37.148438 24.570312 37.5 25 37.5 C 25.429688 37.5 25.78125 37.148438 25.78125 36.71875 L 25.78125 35.15625 C 25.78125 34.726562 25.429688 34.375 25 34.375 Z M 28.90625 34.375 C 28.476562 34.375 28.125 34.726562 28.125 35.15625 L 28.125 36.71875 C 28.125 37.148438 28.476562 37.5 28.90625 37.5 C 29.335938 37.5 29.6875 37.148438 29.6875 36.71875 L 29.6875 35.15625 C 29.6875 34.726562 29.335938 34.375 28.90625 34.375 Z M 32.8125 34.375 C 32.382812 34.375 32.03125 34.726562 32.03125 35.15625 L 32.03125 36.71875 C 32.03125 37.148438 32.382812 37.5 32.8125 37.5 C 33.242188 37.5 33.59375 37.148438 33.59375 36.71875 L 33.59375 35.15625 C 33.59375 34.726562 33.242188 34.375 32.8125 34.375 Z M 36.71875 34.375 C 36.289062 34.375 35.9375 34.726562 35.9375 35.15625 L 35.9375 36.71875 C 35.9375 37.148438 36.289062 37.5 36.71875 37.5 C 37.148438 37.5 37.5 37.148438 37.5 36.71875 L 37.5 35.15625 C 37.5 34.726562 37.148438 34.375 36.71875 34.375 Z M 40.625 34.375 C 40.195312 34.375 39.84375 34.726562 39.84375 35.15625 L 39.84375 36.71875 C 39.84375 37.148438 40.195312 37.5 40.625 37.5 C 41.054688 37.5 41.40625 37.148438 41.40625 36.71875 L 41.40625 35.15625 C 41.40625 34.726562 41.054688 34.375 40.625 34.375 Z M 44.53125 34.375 C 44.101562 34.375 43.75 34.726562 43.75 35.15625 L 43.75 36.71875 C 43.75 37.148438 44.101562 37.5 44.53125 37.5 C 44.960938 37.5 45.3125 37.148438 45.3125 36.71875 L 45.3125 35.15625 C 45.3125 34.726562 44.960938 34.375 44.53125 34.375 Z M 19.53125 28.125 L 22.65625 28.125 C 23.085938 28.125 23.4375 27.773438 23.4375 27.34375 C 23.4375 26.914062 23.085938 26.5625 22.65625 26.5625 L 19.53125 26.5625 C 19.101562 26.5625 18.75 26.914062 18.75 27.34375 C 18.75 27.773438 19.101562 28.125 19.53125 28.125 Z M 19.53125 28.125 "/>
<path style=" stroke:none;fill-rule:nonzero;fill:rgb(55.294118%,42.352941%,62.352941%);fill-opacity:1;" d="M 47.65625 23.4375 L 46.09375 23.4375 C 44.804688 23.4375 43.75 24.492188 43.75 25.78125 L 43.75 26.0625 C 42.460938 24.460938 40.492188 23.4375 38.28125 23.4375 L 17.96875 23.4375 C 17.410156 23.4375 16.902344 23.644531 16.496094 23.972656 C 15.183594 20.90625 12.136719 18.75 8.59375 18.75 L 6.25 18.75 L 6.25 16.40625 C 6.25 15.117188 5.195312 14.0625 3.90625 14.0625 L 2.34375 14.0625 C 1.054688 14.0625 0 15.117188 0 16.40625 L 0 46.09375 C 0 47.382812 1.054688 48.4375 2.34375 48.4375 L 3.90625 48.4375 C 5.195312 48.4375 6.25 47.382812 6.25 46.09375 L 6.25 42.96875 C 6.25 42.539062 6.601562 42.1875 7.03125 42.1875 L 42.96875 42.1875 C 43.398438 42.1875 43.75 42.539062 43.75 42.96875 L 43.75 46.09375 C 43.75 47.382812 44.804688 48.4375 46.09375 48.4375 L 47.65625 48.4375 C 48.945312 48.4375 50 47.382812 50 46.09375 L 50 25.78125 C 50 24.492188 48.945312 23.4375 47.65625 23.4375 Z M 17.1875 25.78125 C 17.1875 25.351562 17.539062 25 17.96875 25 L 38.28125 25 C 39.765625 25 41.113281 25.597656 42.101562 26.5625 L 25.78125 26.5625 C 25.351562 26.5625 25 26.914062 25 27.34375 C 25 27.773438 25.351562 28.125 25.78125 28.125 L 42.96875 28.125 C 43.046875 28.125 43.121094 28.101562 43.191406 28.078125 C 43.546875 28.800781 43.75 29.613281 43.75 30.46875 L 43.75 31.25 L 17.1875 31.25 Z M 6.25 26.019531 C 7.804688 28.234375 10.375 29.6875 13.28125 29.6875 L 15.625 29.6875 L 15.625 31.25 L 6.25 31.25 Z M 8.59375 20.3125 C 12.46875 20.3125 15.625 23.46875 15.625 27.34375 L 15.625 28.125 L 13.28125 28.125 C 9.40625 28.125 6.25 24.96875 6.25 21.09375 L 6.25 20.3125 Z M 48.4375 46.09375 C 48.4375 46.523438 48.085938 46.875 47.65625 46.875 L 46.09375 46.875 C 45.664062 46.875 45.3125 46.523438 45.3125 46.09375 L 45.3125 42.96875 C 45.3125 41.679688 44.257812 40.625 42.96875 40.625 L 7.03125 40.625 C 5.742188 40.625 4.6875 41.679688 4.6875 42.96875 L 4.6875 46.09375 C 4.6875 46.523438 4.335938 46.875 3.90625 46.875 L 2.34375 46.875 C 1.914062 46.875 1.5625 46.523438 1.5625 46.09375 L 1.5625 37.5 C 1.992188 37.5 2.34375 37.148438 2.34375 36.71875 L 2.34375 35.15625 C 2.34375 34.726562 1.992188 34.375 1.5625 34.375 L 1.5625 16.40625 C 1.5625 15.976562 1.914062 15.625 2.34375 15.625 L 3.90625 15.625 C 4.335938 15.625 4.6875 15.976562 4.6875 16.40625 L 4.6875 31.25 C 4.6875 32.109375 5.390625 32.8125 6.25 32.8125 L 45.3125 32.8125 L 45.3125 25.78125 C 45.3125 25.351562 45.664062 25 46.09375 25 L 47.65625 25 C 48.085938 25 48.4375 25.351562 48.4375 25.78125 L 48.4375 34.375 C 48.007812 34.375 47.65625 34.726562 47.65625 35.15625 L 47.65625 36.71875 C 47.65625 37.148438 48.007812 37.5 48.4375 37.5 Z M 48.4375 46.09375 "/>
<path style=" stroke:none;fill-rule:nonzero;fill:rgb(55.294118%,42.352941%,62.352941%);fill-opacity:1;" d="M 27.34375 21.875 C 32.945312 21.875 37.5 17.320312 37.5 11.71875 C 37.5 6.117188 32.945312 1.5625 27.34375 1.5625 C 21.742188 1.5625 17.1875 6.117188 17.1875 11.71875 C 17.1875 17.320312 21.742188 21.875 27.34375 21.875 Z M 27.34375 3.125 C 32.082031 3.125 35.9375 6.980469 35.9375 11.71875 C 35.9375 16.457031 32.082031 20.3125 27.34375 20.3125 C 22.605469 20.3125 18.75 16.457031 18.75 11.71875 C 18.75 6.980469 22.605469 3.125 27.34375 3.125 Z M 27.34375 3.125 "/>
<path style=" stroke:none;fill-rule:nonzero;fill:rgb(98.039216%,93.72549%,87.058824%);fill-opacity:1;" d="M 27.34375 5.46875 C 26.480469 5.46875 25.78125 6.167969 25.78125 7.03125 C 25.78125 7.894531 26.480469 8.59375 27.34375 8.59375 C 28.207031 8.59375 28.90625 7.894531 28.90625 7.03125 C 28.90625 6.167969 28.207031 5.46875 27.34375 5.46875 Z M 25.78125 15.625 C 25.351562 15.625 25 15.976562 25 16.40625 C 25 16.835938 25.351562 17.1875 25.78125 17.1875 L 28.90625 17.1875 C 29.335938 17.1875 29.6875 16.835938 29.6875 16.40625 C 29.6875 15.976562 29.335938 15.625 28.90625 15.625 L 28.125 15.625 L 28.125 10.9375 L 28.90625 10.9375 C 29.335938 10.9375 29.6875 10.585938 29.6875 10.15625 C 29.6875 9.726562 29.335938 9.375 28.90625 9.375 L 25.78125 9.375 C 25.351562 9.375 25 9.726562 25 10.15625 C 25 10.585938 25.351562 10.9375 25.78125 10.9375 L 26.5625 10.9375 L 26.5625 15.625 Z M 25.78125 15.625 "/>
</g>
</svg>
