<?xml version="1.0" encoding="UTF-8"?>
<svg xmlns="http://www.w3.org/2000/svg" xmlns:xlink="http://www.w3.org/1999/xlink" width="240px" height="240px" viewBox="0 0 240 240" version="1.1">
<g id="surface42321">
<path style=" stroke:none;fill-rule:nonzero;fill:rgb(100%,92.156863%,93.333333%);fill-opacity:1;" d="M 25 195 L 25 75 L 215 75 L 215 195 C 215 206.046875 206.046875 215 195 215 L 45 215 C 33.953125 215 25 206.046875 25 195 "/>
<path style=" stroke:none;fill-rule:nonzero;fill:rgb(92.54902%,25.098039%,47.843137%);fill-opacity:1;" d="M 215 55 L 215 85 L 25 85 L 25 55 C 25 43.953125 33.953125 35 45 35 L 195 35 C 206.046875 35 215 43.953125 215 55 "/>
<path style=" stroke:none;fill-rule:nonzero;fill:rgb(67.843137%,7.843137%,34.117647%);fill-opacity:1;" d="M 180 55 C 180 63.285156 173.285156 70 165 70 C 156.714844 70 150 63.285156 150 55 C 150 46.714844 156.714844 40 165 40 C 173.285156 40 180 46.714844 180 55 M 90 55 C 90 63.285156 83.285156 70 75 70 C 66.714844 70 60 63.285156 60 55 C 60 46.714844 66.714844 40 75 40 C 83.285156 40 90 46.714844 90 55 "/>
<path style=" stroke:none;fill-rule:nonzero;fill:rgb(69.019608%,74.509804%,77.254902%);fill-opacity:1;" d="M 165 20 C 159.480469 20 155 24.480469 155 30 L 155 55 C 155 60.519531 159.480469 65 165 65 C 170.519531 65 175 60.519531 175 55 L 175 30 C 175 24.480469 170.519531 20 165 20 M 75 20 C 69.480469 20 65 24.480469 65 30 L 65 55 C 65 60.519531 69.480469 65 75 65 C 80.519531 65 85 60.519531 85 55 L 85 30 C 85 24.480469 80.519531 20 75 20 "/>
<path style=" stroke:none;fill-rule:nonzero;fill:rgb(100%,50.196078%,67.058824%);fill-opacity:1;" d="M 100 115 C 88.953125 115 80 123.953125 80 135 C 80 146.046875 88.953125 155 100 155 C 111.046875 155 120 146.046875 120 135 C 120 123.953125 111.046875 115 100 115 Z M 100 115 "/>
<path style=" stroke:none;fill-rule:nonzero;fill:rgb(100%,50.196078%,67.058824%);fill-opacity:1;" d="M 140 115 C 128.953125 115 120 123.953125 120 135 C 120 146.046875 128.953125 155 140 155 C 151.046875 155 160 146.046875 160 135 C 160 123.953125 151.046875 115 140 115 Z M 140 115 "/>
<path style=" stroke:none;fill-rule:nonzero;fill:rgb(100%,50.196078%,67.058824%);fill-opacity:1;" d="M 120 185 L 155.414062 147.746094 L 120.316406 135 L 84.578125 147.746094 Z M 120 185 "/>
</g>
</svg>
