<?xml version="1.0" encoding="UTF-8"?>
<svg xmlns="http://www.w3.org/2000/svg" xmlns:xlink="http://www.w3.org/1999/xlink" width="50px" height="50px" viewBox="0 0 50 50" version="1.1">
<g id="surface36292">
<path style=" stroke:none;fill-rule:nonzero;fill:rgb(92.941176%,47.058824%,60%);fill-opacity:1;" d="M 30.28125 2.226562 C 28.707031 0.65625 26.160156 0.65625 24.585938 2.226562 L 23.9375 2.875 L 23.289062 2.226562 C 21.714844 0.65625 19.167969 0.65625 17.59375 2.226562 C 16.023438 3.800781 16.023438 6.347656 17.59375 7.921875 L 23.578125 13.90625 C 23.675781 14.003906 23.808594 14.058594 23.945312 14.058594 C 24.082031 14.058594 24.214844 14.003906 24.3125 13.90625 L 30.289062 7.921875 C 31.855469 6.347656 31.855469 3.796875 30.28125 2.226562 Z M 30.28125 2.226562 "/>
<path style=" stroke:none;fill-rule:nonzero;fill:rgb(97.647059%,89.019608%,68.235294%);fill-opacity:1;" d="M 21.09375 33.59375 L 22.65625 22.65625 L 25.054688 19.078125 C 25.117188 18.90625 29.945312 16.054688 29.945312 16.054688 L 33.851562 15.101562 L 36.195312 16.054688 L 38.71875 16.601562 L 42.1875 17.96875 L 44.53125 21.09375 L 47.984375 31.898438 L 49.21875 35.9375 C 48.859375 36.117188 45.601562 37.757812 45.3125 37.5 L 42.96875 35.9375 L 39.84375 33.59375 L 38.929688 32.554688 C 38.8125 32.585938 36.71875 35.15625 36.71875 35.15625 C 35.410156 35.125 34.101562 34.996094 32.8125 34.773438 C 32.8125 34.773438 30.84375 33.695312 30.789062 33.640625 L 24.21875 35.9375 C 24.15625 35.9375 21.375 33.71875 21.09375 33.59375 Z M 21.09375 33.59375 "/>
<path style=" stroke:none;fill-rule:nonzero;fill:rgb(52.156863%,79.607843%,97.254902%);fill-opacity:1;" d="M 11.210938 32.992188 L 2.21875 38.765625 C 1.320312 39.34375 0.777344 40.339844 0.78125 41.40625 L 0.78125 44.375 C 0.78125 45.238281 1.480469 45.9375 2.34375 45.9375 L 28.84375 45.9375 C 29.707031 45.9375 30.40625 45.238281 30.40625 44.375 L 30.40625 41.40625 C 30.40625 40.34375 29.867188 39.355469 28.976562 38.78125 L 19.96875 32.992188 "/>
<path style=" stroke:none;fill-rule:nonzero;fill:rgb(42.352941%,72.941176%,89.803922%);fill-opacity:1;" d="M 33.59375 42.03125 L 3.90625 42.03125 C 2.179688 42.03125 0.78125 43.429688 0.78125 45.15625 C 0.78125 45.585938 1.132812 45.9375 1.5625 45.9375 L 35.9375 45.9375 C 36.367188 45.9375 36.71875 45.585938 36.71875 45.15625 C 36.71875 43.429688 35.320312 42.03125 33.59375 42.03125 Z M 33.59375 42.03125 "/>
<path style=" stroke:none;fill-rule:nonzero;fill:rgb(44.705882%,79.215686%,68.627451%);fill-opacity:1;" d="M 29.179688 32.992188 L 20.1875 38.765625 C 19.289062 39.34375 18.746094 40.339844 18.75 41.40625 L 18.75 44.375 C 18.75 45.238281 19.449219 45.9375 20.3125 45.9375 L 47.59375 45.9375 C 48.457031 45.9375 49.15625 45.238281 49.15625 44.375 L 49.15625 41.40625 C 49.15625 40.34375 48.617188 39.355469 47.726562 38.78125 L 38.71875 32.992188 "/>
<path style=" stroke:none;fill-rule:nonzero;fill:rgb(38.039216%,73.72549%,61.960784%);fill-opacity:1;" d="M 46.09375 42.03125 L 18.75 42.03125 L 18.75 45.15625 C 18.75 45.585938 19.101562 45.9375 19.53125 45.9375 L 48.4375 45.9375 C 48.867188 45.9375 49.21875 45.585938 49.21875 45.15625 C 49.21875 43.429688 47.820312 42.03125 46.09375 42.03125 Z M 46.09375 42.03125 "/>
<path style=" stroke:none;fill-rule:nonzero;fill:rgb(98.039216%,93.72549%,87.058824%);fill-opacity:1;" d="M 27.695312 29.234375 C 27.523438 29.234375 26.976562 28.804688 26.695312 27.789062 C 26.414062 26.773438 26.695312 26.085938 26.796875 26.054688 C 26.796875 26.054688 27.835938 25.882812 27.84375 25.6875 C 27.859375 25.402344 27.890625 25.117188 27.945312 24.835938 C 27.972656 24.535156 27.957031 24.234375 27.898438 23.9375 C 27.898438 23.671875 27.820312 23.351562 27.796875 22.976562 C 27.796875 22.460938 29.6875 23.445312 32.03125 20.320312 C 35.15625 21.882812 41.6875 22.40625 41.40625 22.664062 C 41.125 22.921875 42.71875 25.539062 42.734375 25.539062 C 43.03125 26.257812 43.070312 27.054688 42.84375 27.796875 C 42.539062 28.542969 42.042969 29.195312 41.40625 29.6875 C 41.40625 29.6875 40.296875 31.90625 40.007812 32.367188 C 38.734375 34.375 36.859375 35.9375 34.765625 35.9375 C 31.773438 35.9375 29.21875 32.8125 28.25 29.6875 C 28.191406 29.425781 27.960938 29.238281 27.695312 29.234375 Z M 8.945312 28.453125 C 8.773438 28.453125 8.226562 28.023438 7.945312 27.007812 C 7.664062 25.992188 7.945312 25.304688 8.046875 25.273438 C 8.046875 25.273438 9.085938 25.101562 9.09375 24.90625 C 9.109375 24.621094 9.140625 24.335938 9.195312 24.054688 C 9.222656 23.753906 9.207031 23.453125 9.148438 23.15625 C 9.003906 22.214844 8.980469 21.257812 9.078125 20.3125 C 9.265625 18.554688 10.34375 17.507812 11.984375 17.507812 C 12.109375 17.507812 12.226562 17.46875 12.328125 17.398438 C 13.445312 16.742188 14.71875 16.402344 16.015625 16.40625 L 16.59375 16.40625 C 20.101562 16.40625 22.632812 18.117188 23.671875 21.09375 C 23.273438 21.046875 23.40625 21.320312 23.125 21.578125 C 22.84375 21.835938 22.148438 21.945312 22.414062 22.625 C 22.722656 23.335938 22.898438 24.09375 22.9375 24.867188 C 22.9375 25.0625 23.976562 24.71875 23.984375 24.71875 C 24.28125 25.4375 24.320312 26.234375 24.09375 26.976562 C 23.796875 27.738281 23.300781 28.402344 22.65625 28.90625 C 22.65625 28.90625 21.546875 31.125 21.257812 31.585938 C 19.984375 33.59375 18.109375 35.15625 16.015625 35.15625 C 13.023438 35.15625 10.46875 32.03125 9.5 28.90625 C 9.441406 28.644531 9.210938 28.457031 8.945312 28.453125 Z M 8.945312 28.453125 "/>
<path style=" stroke:none;fill-rule:nonzero;fill:rgb(80.392157%,63.137255%,65.490196%);fill-opacity:1;" d="M 9.65625 22.96875 C 11.164062 22.867188 12.464844 21.875 12.960938 20.445312 C 14.476562 20.953125 14.976562 22.460938 22.046875 21.960938 C 22.75 21.914062 22.828125 22.15625 23.054688 21.960938 C 23.28125 21.765625 22.6875 20.945312 23.054688 20.984375 C 22.203125 18.128906 19.5 16.234375 16.523438 16.40625 L 15.992188 16.40625 C 14.789062 16.402344 13.609375 16.734375 12.585938 17.367188 C 12.492188 17.4375 12.382812 17.476562 12.265625 17.476562 C 10.757812 17.476562 9.757812 18.492188 9.585938 20.195312 C 9.496094 21.113281 9.519531 22.035156 9.65625 22.945312 Z M 9.65625 22.96875 "/>
<path style=" stroke:none;fill-rule:nonzero;fill:rgb(55.294118%,42.352941%,62.352941%);fill-opacity:1;" d="M 32.8125 40.625 C 32.382812 40.625 32.03125 40.976562 32.03125 41.40625 L 32.03125 42.96875 C 32.03125 43.398438 32.382812 43.75 32.8125 43.75 C 33.242188 43.75 33.59375 43.398438 33.59375 42.96875 L 33.59375 41.40625 C 33.59375 40.976562 33.242188 40.625 32.8125 40.625 Z M 36.71875 40.625 C 36.289062 40.625 35.9375 40.976562 35.9375 41.40625 L 35.9375 42.96875 C 35.9375 43.398438 36.289062 43.75 36.71875 43.75 C 37.148438 43.75 37.5 43.398438 37.5 42.96875 L 37.5 41.40625 C 37.5 40.976562 37.148438 40.625 36.71875 40.625 Z M 40.625 43.75 C 41.054688 43.75 41.40625 43.398438 41.40625 42.96875 L 41.40625 41.40625 C 41.40625 40.976562 41.054688 40.625 40.625 40.625 C 40.195312 40.625 39.84375 40.976562 39.84375 41.40625 L 39.84375 42.96875 C 39.84375 43.398438 40.195312 43.75 40.625 43.75 Z M 44.53125 43.75 C 44.960938 43.75 45.3125 43.398438 45.3125 42.96875 L 45.3125 41.40625 C 45.3125 40.976562 44.960938 40.625 44.53125 40.625 C 44.101562 40.625 43.75 40.976562 43.75 41.40625 L 43.75 42.96875 C 43.75 43.398438 44.101562 43.75 44.53125 43.75 Z M 28.90625 40.625 C 28.476562 40.625 28.125 40.976562 28.125 41.40625 L 28.125 42.96875 C 28.125 43.398438 28.476562 43.75 28.90625 43.75 C 29.335938 43.75 29.6875 43.398438 29.6875 42.96875 L 29.6875 41.40625 C 29.6875 40.976562 29.335938 40.625 28.90625 40.625 Z M 25 40.625 C 24.570312 40.625 24.21875 40.976562 24.21875 41.40625 L 24.21875 42.96875 C 24.21875 43.398438 24.570312 43.75 25 43.75 C 25.429688 43.75 25.78125 43.398438 25.78125 42.96875 L 25.78125 41.40625 C 25.78125 40.976562 25.429688 40.625 25 40.625 Z M 21.09375 40.625 C 20.664062 40.625 20.3125 40.976562 20.3125 41.40625 L 20.3125 42.96875 C 20.3125 43.398438 20.664062 43.75 21.09375 43.75 C 21.523438 43.75 21.875 43.398438 21.875 42.96875 L 21.875 41.40625 C 21.875 40.976562 21.523438 40.625 21.09375 40.625 Z M 17.1875 40.625 C 16.757812 40.625 16.40625 40.976562 16.40625 41.40625 L 16.40625 42.96875 C 16.40625 43.398438 16.757812 43.75 17.1875 43.75 C 17.617188 43.75 17.96875 43.398438 17.96875 42.96875 L 17.96875 41.40625 C 17.96875 40.976562 17.617188 40.625 17.1875 40.625 Z M 13.28125 40.625 C 12.851562 40.625 12.5 40.976562 12.5 41.40625 L 12.5 42.96875 C 12.5 43.398438 12.851562 43.75 13.28125 43.75 C 13.710938 43.75 14.0625 43.398438 14.0625 42.96875 L 14.0625 41.40625 C 14.0625 40.976562 13.710938 40.625 13.28125 40.625 Z M 9.375 40.625 C 8.945312 40.625 8.59375 40.976562 8.59375 41.40625 L 8.59375 42.96875 C 8.59375 43.398438 8.945312 43.75 9.375 43.75 C 9.804688 43.75 10.15625 43.398438 10.15625 42.96875 L 10.15625 41.40625 C 10.15625 40.976562 9.804688 40.625 9.375 40.625 Z M 5.46875 40.625 C 5.039062 40.625 4.6875 40.976562 4.6875 41.40625 L 4.6875 42.96875 C 4.6875 43.398438 5.039062 43.75 5.46875 43.75 C 5.898438 43.75 6.25 43.398438 6.25 42.96875 L 6.25 41.40625 C 6.25 40.976562 5.898438 40.625 5.46875 40.625 Z M 38.984375 21.09375 C 37.226562 21.296875 34.476562 21.09375 33.171875 20.445312 L 32.34375 20.039062 C 31.777344 19.769531 31.097656 19.933594 30.71875 20.4375 L 29.890625 21.351562 C 29.597656 21.671875 29.621094 22.164062 29.941406 22.457031 C 30.261719 22.75 30.753906 22.726562 31.046875 22.40625 L 31.828125 21.539062 L 32.484375 21.859375 C 34.105469 22.492188 35.839844 22.792969 37.578125 22.742188 C 38.101562 22.746094 38.621094 22.71875 39.140625 22.664062 C 39.570312 22.617188 39.882812 22.226562 39.835938 21.796875 C 39.789062 21.367188 39.398438 21.054688 38.96875 21.101562 Z M 38.984375 21.09375 "/>
<path style=" stroke:none;fill-rule:nonzero;fill:rgb(55.294118%,42.352941%,62.352941%);fill-opacity:1;" d="M 49.945312 35.414062 C 50.058594 34.949219 49.96875 34.457031 49.695312 34.0625 L 48.726562 32.078125 C 47.871094 30.328125 47.195312 28.496094 46.710938 26.609375 L 45.585938 22.28125 C 44.59375 18.085938 40.945312 15.054688 36.640625 14.84375 C 35.742188 14.316406 34.714844 14.046875 33.671875 14.0625 C 29.679688 14.0625 25.914062 16.804688 23.945312 19.867188 C 22.578125 17.140625 19.726562 15.476562 16.679688 15.625 L 16.148438 15.625 C 14.757812 15.628906 13.390625 16 12.1875 16.695312 C 10.140625 16.804688 8.695312 18.304688 8.46875 20.601562 C 8.371094 21.609375 8.394531 22.628906 8.539062 23.632812 C 8.539062 23.820312 8.59375 24.054688 8.59375 24.109375 L 8.59375 24.21875 L 8.515625 24.21875 C 7.902344 24.425781 7.464844 24.96875 7.390625 25.609375 C 7.28125 26.238281 7.316406 26.886719 7.492188 27.5 C 7.671875 28.429688 8.238281 29.242188 9.054688 29.726562 C 9.410156 30.777344 9.90625 31.773438 10.523438 32.695312 L 1.78125 38.28125 C 0.65625 39.007812 -0.015625 40.261719 0 41.601562 L 0 44.6875 C 0.00390625 45.898438 0.984375 46.875 2.195312 46.875 L 47.742188 46.875 C 48.953125 46.875 49.9375 45.890625 49.9375 44.679688 L 49.9375 41.601562 C 49.949219 40.261719 49.273438 39.007812 48.148438 38.28125 L 46.875 37.5 C 47.523438 37.277344 48.15625 37.019531 48.773438 36.71875 C 49.335938 36.476562 49.765625 36 49.945312 35.414062 Z M 48.382812 41.59375 L 48.382812 44.679688 C 48.382812 45.027344 48.097656 45.3125 47.75 45.3125 L 2.195312 45.3125 C 1.847656 45.3125 1.5625 45.027344 1.5625 44.679688 L 1.5625 41.601562 C 1.5625 40.804688 1.964844 40.066406 2.632812 39.632812 L 11.484375 33.90625 L 12.023438 34.453125 C 12.328125 34.757812 12.824219 34.761719 13.128906 34.457031 C 13.433594 34.152344 13.4375 33.65625 13.132812 33.351562 L 12.351562 32.570312 C 11.449219 31.464844 10.773438 30.191406 10.367188 28.820312 C 10.285156 28.496094 9.992188 28.265625 9.65625 28.265625 C 9.273438 27.964844 9.019531 27.535156 8.9375 27.054688 C 8.820312 26.640625 8.8125 26.199219 8.921875 25.78125 C 9.160156 25.894531 9.4375 25.882812 9.660156 25.746094 C 9.886719 25.609375 10.027344 25.371094 10.039062 25.109375 C 10.050781 24.847656 10.078125 24.585938 10.125 24.328125 C 10.160156 24.011719 10.144531 23.695312 10.085938 23.382812 C 9.957031 22.496094 9.9375 21.59375 10.023438 20.703125 C 10.179688 19.140625 11.0625 18.21875 12.445312 18.21875 C 12.613281 18.21875 12.777344 18.164062 12.914062 18.0625 C 13.890625 17.480469 15.011719 17.179688 16.148438 17.1875 L 16.679688 17.1875 C 19.398438 17.027344 21.898438 18.671875 22.828125 21.234375 C 22.523438 21.246094 22.230469 21.363281 22.007812 21.570312 C 21.625 21.972656 21.542969 22.570312 21.796875 23.0625 C 22.070312 23.726562 22.226562 24.433594 22.257812 25.148438 C 22.28125 25.429688 22.457031 25.671875 22.710938 25.789062 C 22.921875 25.882812 23.164062 25.882812 23.375 25.789062 C 23.476562 26.214844 23.460938 26.660156 23.328125 27.078125 C 23.242188 27.542969 23.007812 27.96875 22.65625 28.289062 C 22.300781 28.273438 21.976562 28.503906 21.875 28.84375 C 21.335938 30.734375 20.25 32.421875 18.75 33.695312 C 18.410156 33.976562 18.363281 34.476562 18.644531 34.816406 C 18.925781 35.15625 19.425781 35.203125 19.765625 34.921875 C 19.984375 34.746094 20.195312 34.558594 20.398438 34.359375 L 23.523438 36.382812 L 22.15625 37.265625 C 21.792969 37.5 21.691406 37.984375 21.925781 38.347656 C 22.160156 38.710938 22.644531 38.8125 23.007812 38.578125 L 30.210938 33.890625 C 31.253906 35.394531 32.9375 36.332031 34.765625 36.429688 C 36.4375 36.375 38.007812 35.597656 39.0625 34.296875 L 47.304688 39.625 C 47.976562 40.058594 48.378906 40.804688 48.375 41.601562 Z M 48.4375 35.039062 C 48.378906 35.183594 48.261719 35.292969 48.117188 35.351562 C 47.171875 35.773438 46.195312 36.125 45.195312 36.398438 L 40.007812 33.046875 C 40.667969 32.011719 41.195312 30.894531 41.570312 29.726562 C 42.386719 29.242188 42.953125 28.429688 43.132812 27.5 C 43.308594 26.886719 43.34375 26.238281 43.234375 25.609375 C 43.167969 24.988281 42.765625 24.453125 42.1875 24.21875 C 42.277344 23.644531 42.242188 23.054688 42.09375 22.492188 C 41.957031 22.082031 41.515625 21.859375 41.105469 21.996094 C 40.695312 22.132812 40.472656 22.574219 40.609375 22.984375 C 40.6875 23.390625 40.695312 23.808594 40.625 24.21875 C 40.585938 24.53125 40.570312 24.847656 40.578125 25.164062 C 40.601562 25.445312 40.777344 25.6875 41.03125 25.804688 C 41.242188 25.902344 41.484375 25.902344 41.695312 25.804688 C 41.796875 26.234375 41.78125 26.679688 41.648438 27.101562 C 41.558594 27.570312 41.320312 27.992188 40.96875 28.3125 C 40.613281 28.296875 40.289062 28.527344 40.1875 28.867188 C 39.296875 31.867188 37.257812 34.898438 34.71875 34.898438 C 32.179688 34.898438 30.21875 31.867188 29.328125 28.867188 C 29.246094 28.542969 28.953125 28.3125 28.617188 28.3125 C 28.234375 28.011719 27.980469 27.582031 27.898438 27.101562 C 27.777344 26.667969 27.777344 26.214844 27.898438 25.78125 C 28.136719 25.894531 28.414062 25.882812 28.636719 25.746094 C 28.863281 25.609375 29.003906 25.371094 29.015625 25.109375 C 29.027344 24.925781 29.027344 24.738281 29.015625 24.554688 C 28.9375 24.019531 28.9375 23.480469 29.015625 22.945312 C 29.136719 22.53125 28.902344 22.09375 28.488281 21.972656 C 28.074219 21.851562 27.636719 22.085938 27.515625 22.5 C 27.371094 23.0625 27.328125 23.640625 27.382812 24.21875 C 26.8125 24.453125 26.410156 24.972656 26.335938 25.585938 C 26.226562 26.214844 26.261719 26.863281 26.4375 27.476562 C 26.617188 28.40625 27.183594 29.21875 28 29.703125 C 28.332031 30.714844 28.773438 31.683594 29.3125 32.601562 L 25 35.453125 L 21.476562 33.171875 C 22.253906 32.113281 22.855469 30.9375 23.265625 29.6875 C 24.082031 29.203125 24.648438 28.390625 24.828125 27.460938 C 25.003906 26.847656 25.039062 26.199219 24.929688 25.570312 C 24.839844 24.941406 24.40625 24.417969 23.804688 24.21875 L 23.726562 24.21875 C 23.648438 23.765625 23.535156 23.324219 23.382812 22.890625 L 23.632812 22.976562 C 23.902344 23.089844 24.210938 23.042969 24.433594 22.855469 C 24.65625 22.667969 24.757812 22.371094 24.695312 22.085938 C 24.695312 22.007812 24.65625 21.929688 24.632812 21.851562 C 26.039062 18.796875 29.796875 15.625 33.664062 15.625 C 34.484375 15.617188 35.285156 15.855469 35.96875 16.304688 C 36.085938 16.382812 36.226562 16.425781 36.367188 16.429688 C 40.066406 16.496094 43.242188 19.074219 44.070312 22.679688 L 45.195312 27.007812 C 45.710938 28.984375 46.421875 30.902344 47.320312 32.734375 L 48.320312 34.78125 C 48.339844 34.824219 48.363281 34.867188 48.390625 34.90625 C 48.4375 34.992188 48.4375 35.023438 48.4375 35.039062 Z M 48.4375 35.039062 "/>
<path style=" stroke:none;fill-rule:nonzero;fill:rgb(55.294118%,42.352941%,62.352941%);fill-opacity:1;" d="M 23.289062 14.679688 C 23.804688 15.195312 24.640625 15.195312 25.15625 14.679688 L 31.359375 8.46875 C 32.292969 7.535156 32.816406 6.273438 32.816406 4.953125 C 32.816406 3.632812 32.292969 2.371094 31.359375 1.4375 C 30.429688 0.503906 29.164062 -0.0234375 27.84375 -0.0234375 C 26.523438 -0.0234375 25.257812 0.503906 24.328125 1.4375 L 24.21875 1.5625 L 24.101562 1.445312 C 22.160156 -0.496094 19.011719 -0.496094 17.070312 1.445312 C 15.128906 3.386719 15.128906 6.535156 17.070312 8.476562 Z M 18.179688 2.5625 C 18.816406 1.921875 19.683594 1.5625 20.585938 1.5625 C 21.488281 1.5625 22.355469 1.921875 22.992188 2.5625 L 23.109375 2.679688 L 22.867188 2.921875 C 22.644531 3.113281 22.546875 3.414062 22.617188 3.699219 C 22.683594 3.984375 22.90625 4.207031 23.191406 4.273438 C 23.476562 4.34375 23.777344 4.246094 23.96875 4.023438 L 24.21875 3.78125 L 25.445312 2.554688 C 26.773438 1.226562 28.929688 1.226562 30.257812 2.554688 C 31.585938 3.882812 31.585938 6.039062 30.257812 7.367188 L 24.21875 13.40625 L 18.179688 7.367188 C 16.859375 6.039062 16.859375 3.890625 18.179688 2.5625 Z M 18.179688 2.5625 "/>
</g>
</svg>
