<?xml version="1.0"?>
<svg xmlns="http://www.w3.org/2000/svg" height="512px" viewBox="0 0 192 192" width="512px" class=""><g><g id="_19-promote" data-name="19-promote"><path d="m93.139 13.65-15.1 5.3 4.62 13.172c-4.628 25.2-40.277 53.954-54.976 63.837l-21.7 7.61a8.081 8.081 0 0 0 -4.9 10.2l23.835 67.931a8.074 8.074 0 0 0 10.2 4.9l15.1-5.3a8 8 0 0 0 5.273-8.665l-4.491-31.814c20.779-.759 58.33 1.149 75.376 15.935l4.624 13.171 15.1-5.295zm-55.771 155.207-7.944-22.646 5.889-2.065 3.415 24.235zm21.932-44.163c-10.194 0-17.286.624-18.168.706-.031 0-.061.011-.092.015-.2.02-.391.055-.586.09-.111.02-.223.033-.333.058a7.892 7.892 0 0 0 -.9.254l-15.1 5.3-5.3-15.1 15.1-5.3a8.008 8.008 0 0 0 1.752-.867c1.9-1.254 38.157-25.391 55.007-54.846l27.662 78.861c-19.285-7.626-43.001-9.171-59.042-9.171z" data-original="#000000" class="active-path" data-old_color="#000000" fill="#01F1F7"/><path d="m138.064 92.575 5.358 15.076a24 24 0 1 0 -16.073-45.229l5.357 15.078a8 8 0 1 1 5.358 15.077z" data-original="#000000" class="active-path" data-old_color="#000000" fill="#01F1F7"/><path d="m188.152 66.284a56.061 56.061 0 0 0 -71.518-34.014l5.357 15.076a40 40 0 0 1 26.789 75.382l5.358 15.076a56 56 0 0 0 34.014-71.52z" data-original="#000000" class="active-path" data-old_color="#000000" fill="#01F1F7"/></g></g> </svg>
