<svg width="75" height="78" xmlns="http://www.w3.org/2000/svg"><g stroke="#DFDEE7" stroke-width="3" fill="none" fill-rule="evenodd"><path d="M12 51h-1.26C5.913 51 2 47.24 2 42.6v-4.2c0-4.64 3.913-8.4 8.74-8.4H12v21zM63 30h1.26c4.827 0 8.74 3.76 8.74 8.4v4.2c0 4.64-3.913 8.4-8.74 8.4H63V30z"/><path d="M43.393 69l5.407-.008a14.37 14.37 0 0 0 9.173-3.315C61.161 63.02 63 59.12 63 55.01V27.073C63 13.283 51.524 2 37.5 2 23.475 2 12 13.283 12 27.073v21.973" stroke-linecap="round"/><path d="M32 70a6 6 0 1 1 12 0 6 6 0 0 1-12 0z"/></g></svg>